<svg width="20" height="20" viewBox="0 0 20 20" fill="none" xmlns="http://www.w3.org/2000/svg">
<path d="M13.9583 2.96601V1.66602C13.9583 1.32435 13.675 1.04102 13.3333 1.04102C12.9917 1.04102 12.7083 1.32435 12.7083 1.66602V2.91602H7.29165V1.66602C7.29165 1.32435 7.00832 1.04102 6.66665 1.04102C6.32499 1.04102 6.04165 1.32435 6.04165 1.66602V2.96601C3.79165 3.17435 2.69999 4.51601 2.53332 6.50768C2.51665 6.74935 2.71665 6.94935 2.94999 6.94935H17.05C17.2917 6.94935 17.4917 6.74101 17.4667 6.50768C17.3 4.51601 16.2083 3.17435 13.9583 2.96601Z" fill="#40C4AA"/>
<path opacity="0.4" d="M17.5 9.03308V10.4831C17.5 10.9914 17.05 11.3831 16.55 11.2997C16.3167 11.2664 16.075 11.2414 15.8333 11.2414C13.3083 11.2414 11.25 13.2997 11.25 15.8247C11.25 16.2081 11.4 16.7414 11.5583 17.2248C11.7417 17.7664 11.3417 18.3247 10.7667 18.3247H6.66667C3.75 18.3247 2.5 16.6581 2.5 14.1581V9.02474C2.5 8.56641 2.875 8.19141 3.33333 8.19141H16.6667C17.125 8.19974 17.5 8.57475 17.5 9.03308Z" fill="#40C4AA"/>
<path d="M15.8333 12.5C13.9917 12.5 12.5 13.9917 12.5 15.8333C12.5 16.4583 12.675 17.05 12.9833 17.55C13.5583 18.5167 14.6167 19.1667 15.8333 19.1667C17.05 19.1667 18.1083 18.5167 18.6833 17.55C18.9917 17.05 19.1667 16.4583 19.1667 15.8333C19.1667 13.9917 17.675 12.5 15.8333 12.5ZM17.5583 15.475L15.7833 17.1167C15.6667 17.225 15.5083 17.2833 15.3583 17.2833C15.2 17.2833 15.0417 17.225 14.9167 17.1L14.0917 16.275C13.85 16.0333 13.85 15.6333 14.0917 15.3917C14.3333 15.15 14.7333 15.15 14.975 15.3917L15.375 15.7917L16.7083 14.5583C16.9583 14.325 17.3583 14.3417 17.5917 14.5917C17.825 14.8417 17.8083 15.2333 17.5583 15.475Z" fill="#40C4AA"/>
<path d="M7.08333 12.4994C6.86667 12.4994 6.65 12.4078 6.49167 12.2578C6.34167 12.0994 6.25 11.8828 6.25 11.6661C6.25 11.4494 6.34167 11.2328 6.49167 11.0744C6.68333 10.8828 6.975 10.7911 7.25 10.8494C7.3 10.8578 7.35 10.8744 7.4 10.8994C7.45 10.9161 7.5 10.9411 7.55 10.9745C7.59166 11.0078 7.63333 11.0411 7.675 11.0744C7.825 11.2328 7.91667 11.4494 7.91667 11.6661C7.91667 11.8828 7.825 12.0994 7.675 12.2578C7.63333 12.2911 7.59166 12.3244 7.55 12.3578C7.5 12.3911 7.45 12.4161 7.4 12.4328C7.35 12.4578 7.3 12.4744 7.25 12.4828C7.19166 12.4911 7.13333 12.4994 7.08333 12.4994Z" fill="#40C4AA"/>
<path d="M9.99996 12.5C9.78329 12.5 9.56663 12.4083 9.40829 12.2583C9.25829 12.1 9.16663 11.8833 9.16663 11.6667C9.16663 11.45 9.25829 11.2333 9.40829 11.075C9.72496 10.7667 10.2833 10.7667 10.5916 11.075C10.7416 11.2333 10.8333 11.45 10.8333 11.6667C10.8333 11.8833 10.7416 12.1 10.5916 12.2583C10.4333 12.4083 10.2166 12.5 9.99996 12.5Z" fill="#40C4AA"/>
<path d="M7.08333 15.4157C6.86667 15.4157 6.65 15.3241 6.49167 15.1741C6.34167 15.0157 6.25 14.7991 6.25 14.5824C6.25 14.3657 6.34167 14.1491 6.49167 13.9908C6.575 13.9158 6.65834 13.8574 6.76667 13.8157C7.075 13.6824 7.44167 13.7574 7.675 13.9908C7.825 14.1491 7.91667 14.3657 7.91667 14.5824C7.91667 14.7991 7.825 15.0157 7.675 15.1741C7.51667 15.3241 7.3 15.4157 7.08333 15.4157Z" fill="#40C4AA"/>
</svg>
