<svg width="20" height="20" viewBox="0 0 20 20" fill="none" xmlns="http://www.w3.org/2000/svg">
<path d="M5.83329 6.66602H3.33329C2.41663 6.66602 1.66663 5.91602 1.66663 4.99935V3.33268C1.66663 2.41602 2.41663 1.66602 3.33329 1.66602H5.83329C6.74996 1.66602 7.49996 2.41602 7.49996 3.33268V4.99935C7.49996 5.91602 6.74996 6.66602 5.83329 6.66602Z" fill="#94BA2C"/>
<path d="M17.3333 5.83333H14.3332C13.7832 5.83333 13.3333 5.38332 13.3333 4.83332V3.50001C13.3333 2.95001 13.7832 2.5 14.3332 2.5H17.3333C17.8833 2.5 18.3333 2.95001 18.3333 3.50001V4.83332C18.3333 5.38332 17.8833 5.83333 17.3333 5.83333Z" fill="#94BA2C"/>
<path d="M17.3333 12.0833H14.3332C13.7832 12.0833 13.3333 11.6333 13.3333 11.0833V9.75001C13.3333 9.20001 13.7832 8.75 14.3332 8.75H17.3333C17.8833 8.75 18.3333 9.20001 18.3333 9.75001V11.0833C18.3333 11.6333 17.8833 12.0833 17.3333 12.0833Z" fill="#94BA2C"/>
<path opacity="0.37" d="M13.3333 11.041C13.675 11.041 13.9583 10.7577 13.9583 10.416C13.9583 10.0743 13.675 9.79102 13.3333 9.79102H11.0417V4.79102H13.3333C13.675 4.79102 13.9583 4.50768 13.9583 4.16602C13.9583 3.82435 13.675 3.54102 13.3333 3.54102H7.5C7.15833 3.54102 6.875 3.82435 6.875 4.16602C6.875 4.50768 7.15833 4.79102 7.5 4.79102H9.79167V14.9993C9.79167 16.266 10.8167 17.291 12.0833 17.291H13.3333C13.675 17.291 13.9583 17.0077 13.9583 16.666C13.9583 16.3243 13.675 16.041 13.3333 16.041H12.0833C11.5083 16.041 11.0417 15.5743 11.0417 14.9993V11.041H13.3333Z" fill="#94BA2C"/>
<path d="M17.3333 18.3333H14.3332C13.7832 18.3333 13.3333 17.8833 13.3333 17.3333V16C13.3333 15.45 13.7832 15 14.3332 15H17.3333C17.8833 15 18.3333 15.45 18.3333 16V17.3333C18.3333 17.8833 17.8833 18.3333 17.3333 18.3333Z" fill="#94BA2C"/>
</svg>
