<svg width="20" height="20" viewBox="0 0 20 20" fill="none" xmlns="http://www.w3.org/2000/svg">
<path d="M15.6084 12.2252L12.15 15.6836C12.0167 15.8169 11.8917 16.0752 11.8584 16.2586L11.6667 17.5836C11.6 18.0586 11.9334 18.4002 12.4084 18.3252L13.7334 18.1336C13.9167 18.1086 14.175 17.9752 14.3084 17.8419L17.7667 14.3836C18.3584 13.7919 18.6417 13.0919 17.7667 12.2169C16.9 11.3502 16.2084 11.6252 15.6084 12.2252Z" fill="#006ADC"/>
<path d="M15.1167 12.7168C15.4084 13.7668 16.2334 14.5834 17.2834 14.8834L15.1167 12.7168Z" fill="#006ADC"/>
<path opacity="0.4" d="M1.69172 12.1914C1.69172 12.2164 1.67505 12.2497 1.67505 12.2747C2.44172 13.8081 3.69172 15.0664 5.22506 15.8247C5.25006 15.8247 5.28338 15.8081 5.30838 15.8081C5.02505 14.8414 4.80839 13.8497 4.65006 12.8581C3.65005 12.6914 2.65839 12.4747 1.69172 12.1914Z" fill="#006ADC"/>
<path opacity="0.4" d="M15.8916 5.35885C15.1082 3.71718 13.7832 2.39219 12.1499 1.61719C12.4499 2.60885 12.6999 3.62552 12.8666 4.64219C13.8832 4.80886 14.8999 5.05051 15.8916 5.35885Z" fill="#006ADC"/>
<path opacity="0.4" d="M1.60828 5.3586C2.60828 5.0586 3.62496 4.80861 4.64162 4.64194C4.80829 3.65028 5.01662 2.66694 5.29995 1.70028C5.27495 1.70028 5.24161 1.68359 5.21661 1.68359C3.64994 2.45859 2.37494 3.76693 1.60828 5.3586Z" fill="#006ADC"/>
<path opacity="0.4" d="M11.5166 4.46588C11.3166 3.38255 11.0666 2.29923 10.7083 1.24923C10.6916 1.19089 10.6916 1.1409 10.6833 1.07423C10.0666 0.924234 9.41662 0.824219 8.74995 0.824219C8.07495 0.824219 7.43328 0.915901 6.80828 1.07423C6.79995 1.13257 6.80828 1.18256 6.79161 1.24923C6.44161 2.29923 6.18328 3.38255 5.98328 4.46588C7.82494 4.26588 9.67496 4.26588 11.5166 4.46588Z" fill="#006ADC"/>
<path opacity="0.4" d="M4.46661 5.98242C3.37495 6.18242 2.29995 6.43242 1.24995 6.79076C1.19161 6.80742 1.14161 6.80742 1.07494 6.81576C0.924941 7.43242 0.824951 8.08243 0.824951 8.74909C0.824951 9.42409 0.916608 10.0658 1.07494 10.6908C1.13327 10.6991 1.18328 10.6908 1.24995 10.7074C2.29995 11.0574 3.37495 11.3158 4.46661 11.5158C4.26661 9.6741 4.26661 7.82409 4.46661 5.98242Z" fill="#006ADC"/>
<path opacity="0.4" d="M16.4166 6.81576C16.3582 6.81576 16.3082 6.80742 16.2416 6.79076C15.1916 6.44076 14.1082 6.18242 13.0249 5.98242C13.2332 7.82409 13.2332 9.67409 13.0249 11.5074C14.1082 11.3074 15.1916 11.0574 16.2416 10.6991C16.2999 10.6824 16.3499 10.6908 16.4166 10.6824C16.5666 10.0574 16.6666 9.41575 16.6666 8.74075C16.6666 8.08242 16.5749 7.44076 16.4166 6.81576Z" fill="#006ADC"/>
<path opacity="0.4" d="M5.98328 13.0332C6.18328 14.1249 6.43328 15.1999 6.79161 16.2499C6.80828 16.3082 6.79995 16.3582 6.80828 16.4249C7.43328 16.5749 8.07495 16.6749 8.74995 16.6749C9.41662 16.6749 10.0666 16.5832 10.6833 16.4249C10.6916 16.3665 10.6916 16.3165 10.7083 16.2499C11.0583 15.1999 11.3166 14.1249 11.5166 13.0332C10.6 13.1332 9.67495 13.2082 8.74995 13.2082C7.82495 13.1999 6.89994 13.1332 5.98328 13.0332Z" fill="#006ADC"/>
<path opacity="0.4" d="M5.79163 5.79102C5.54163 7.75768 5.54163 9.741 5.79163 11.716C7.75829 11.966 9.74163 11.966 11.7166 11.716C11.9666 9.74934 11.9666 7.76602 11.7166 5.79102C9.74163 5.54102 7.75829 5.54102 5.79163 5.79102Z" fill="#006ADC"/>
</svg>
