<svg width="20" height="20" viewBox="0 0 20 20" fill="none" xmlns="http://www.w3.org/2000/svg">
<path d="M4.97504 0.833984H2.52504C1.46671 0.833984 0.833374 1.46732 0.833374 2.52565V4.97565C0.833374 6.03398 1.46671 6.66732 2.52504 6.66732H4.97504C6.03337 6.66732 6.66671 6.03398 6.66671 4.97565V2.52565C6.66671 1.46732 6.03337 0.833984 4.97504 0.833984ZM5.39171 4.63398C5.60004 4.84232 5.60004 5.18398 5.39171 5.39232C5.28337 5.49232 5.14171 5.54232 5.00837 5.54232C4.87504 5.54232 4.74171 5.49232 4.63337 5.39232L3.74171 4.50898L2.87504 5.39232C2.76671 5.49232 2.63337 5.54232 2.48337 5.54232C2.35004 5.54232 2.21671 5.49232 2.10837 5.39232C1.90004 5.18398 1.90004 4.84232 2.10837 4.63398L3.00004 3.75065L2.11671 2.87565C1.90837 2.66732 1.90837 2.32565 2.11671 2.11732C2.32504 1.90898 2.66671 1.90898 2.87504 2.11732L3.74171 3.00065L4.62504 2.11732C4.83337 1.90898 5.17504 1.90898 5.38337 2.11732C5.59171 2.32565 5.59171 2.66732 5.38337 2.87565L4.50837 3.75065L5.39171 4.63398Z" fill="#FFA01C"/>
<path opacity="0.4" d="M13.8584 1.66602H6.48337C6.60004 1.90768 6.66671 2.19102 6.66671 2.52435V4.97435C6.66671 6.03268 6.03337 6.66602 4.97504 6.66602H2.52504C2.36671 6.66602 2.22504 6.64935 2.08337 6.61602V14.2743C2.08337 16.516 3.90004 18.3327 6.14171 18.3327H12.7834C12.925 18.3327 13.0667 18.2827 13.175 18.166C14.4084 16.9243 16.5584 14.7577 17.7667 13.541C17.875 13.4327 17.9167 13.3077 17.9167 13.1827V5.72435C17.9167 3.48268 16.1 1.66602 13.8584 1.66602Z" fill="#FFA01C"/>
<path d="M17.9167 13.1837C17.9167 13.3087 17.875 13.4337 17.7667 13.5421C16.5584 14.7587 14.4084 16.9254 13.175 18.1671C13.0667 18.2837 12.925 18.3337 12.7834 18.3337C12.5084 18.3337 12.2417 18.1171 12.2417 17.8004V14.8837C12.2417 13.6671 13.275 12.6587 14.5417 12.6587C15.3334 12.6504 16.4334 12.6504 17.375 12.6504C17.7 12.6504 17.9167 12.9087 17.9167 13.1837Z" fill="#FFA01C"/>
<path d="M12.3166 10.5918H6.1333C5.7833 10.5918 5.5083 10.3085 5.5083 9.9668C5.5083 9.62513 5.79163 9.3418 6.1333 9.3418H12.3166C12.6666 9.3418 12.9416 9.62513 12.9416 9.9668C12.9416 10.3085 12.6666 10.5918 12.3166 10.5918Z" fill="#FFA01C"/>
<path d="M9.99997 13.6836H6.1333C5.7833 13.6836 5.5083 13.4003 5.5083 13.0586C5.5083 12.7086 5.79163 12.4336 6.1333 12.4336H9.99997C10.35 12.4336 10.625 12.7169 10.625 13.0586C10.625 13.4003 10.35 13.6836 9.99997 13.6836Z" fill="#FFA01C"/>
</svg>
