<svg width="20" height="20" viewBox="0 0 20 20" fill="none" xmlns="http://www.w3.org/2000/svg">
<path opacity="0.4" d="M18.2083 9.50781L17.6916 15.1578C17.5166 16.8245 16.8333 18.5245 13.1666 18.5245H6.81663C3.14996 18.5245 2.46663 16.8245 2.29996 15.1661L1.79163 9.74115C1.79996 9.74948 1.80829 9.75781 1.82496 9.76615C2.10829 9.94948 2.38329 10.1328 2.68329 10.2995C2.79996 10.3745 2.92496 10.4411 3.04996 10.5078C3.99163 11.0245 4.99996 11.4328 6.04163 11.7161C6.45829 11.8411 6.88329 11.9328 7.31663 12.0078C7.48329 13.3411 8.62496 14.3745 9.99996 14.3745C11.3916 14.3745 12.5416 13.3161 12.6916 11.9578V11.9495C13.1166 11.8661 13.5416 11.7578 13.9583 11.6328C15 11.3078 16.0083 10.8745 16.95 10.3245C17 10.2995 17.0416 10.2745 17.075 10.2495C17.4583 10.0411 17.825 9.79948 18.175 9.54948C18.1916 9.54115 18.2 9.52448 18.2083 9.50781Z" fill="#6E56CF"/>
<path d="M17.575 5.81628C16.8667 5.03294 15.6917 4.64128 13.9667 4.64128H13.7667V4.60794C13.7667 3.20794 13.7667 1.47461 10.6333 1.47461H9.36666C6.23332 1.47461 6.23332 3.20794 6.23332 4.60794V4.64128H6.03332C4.30832 4.64128 3.12499 5.03294 2.42499 5.81628C1.59999 6.74128 1.62499 7.96628 1.70832 8.80794L1.71666 8.86628L1.79166 9.74128C1.79999 9.74961 1.81666 9.75794 1.83332 9.76628C2.11666 9.94961 2.39166 10.1329 2.69166 10.2996C2.80832 10.3746 2.93332 10.4413 3.05832 10.5079C3.99999 11.0246 5.00832 11.4329 6.04166 11.7163C6.06666 13.8746 7.83332 15.6246 9.99999 15.6246C12.1833 15.6246 13.9583 13.8496 13.9583 11.6663V11.6329C15.0083 11.3163 16.0167 10.8746 16.9583 10.3246C17.0083 10.2996 17.0417 10.2746 17.0833 10.2496C17.4667 10.0413 17.8333 9.79961 18.1833 9.54961C18.1917 9.54128 18.2083 9.52461 18.2167 9.50794L18.25 9.20794L18.2917 8.81628C18.3 8.76628 18.3 8.72461 18.3083 8.66628C18.375 7.83294 18.3583 6.68294 17.575 5.81628ZM7.42499 4.60794C7.42499 3.19128 7.42499 2.65794 9.36666 2.65794H10.6333C12.575 2.65794 12.575 3.19128 12.575 4.60794V4.64128H7.42499V4.60794ZM9.99999 14.3746C8.62499 14.3746 7.48332 13.3413 7.31666 12.0079C7.29999 11.8996 7.29166 11.7829 7.29166 11.6663C7.29166 10.1746 8.50832 8.95794 9.99999 8.95794C11.4917 8.95794 12.7083 10.1746 12.7083 11.6663C12.7083 11.7663 12.7 11.8579 12.6917 11.9496V11.9579C12.5417 13.3163 11.3917 14.3746 9.99999 14.3746Z" fill="#6E56CF"/>
<path d="M9.52494 13.3583C9.36661 13.3583 9.20828 13.3 9.08328 13.175L8.25828 12.3583C8.01661 12.1166 8.01661 11.7166 8.25828 11.475C8.49994 11.2333 8.89994 11.2333 9.14161 11.475L9.54161 11.875L10.8833 10.6416C11.1333 10.4083 11.5333 10.425 11.7666 10.675C11.9999 10.925 11.9833 11.325 11.7333 11.5583L9.95828 13.2C9.82494 13.3 9.67494 13.3583 9.52494 13.3583Z" fill="#6E56CF"/>
</svg>
