<svg width="20" height="20" viewBox="0 0 20 20" fill="none" xmlns="http://www.w3.org/2000/svg">
<path d="M18.3333 4.99942V7.01608C18.3333 8.33275 17.4999 9.16608 16.1833 9.16608H13.3333V3.34108C13.3333 2.41608 14.0916 1.65775 15.0166 1.66608C15.9249 1.67442 16.7583 2.04108 17.3583 2.64108C17.9583 3.24942 18.3333 4.08275 18.3333 4.99942Z" fill="#006ADC"/>
<path opacity="0.4" d="M1.66663 5.83268V17.4993C1.66663 18.191 2.44996 18.5827 2.99996 18.166L4.42496 17.0993C4.75829 16.8493 5.22496 16.8827 5.52496 17.1827L6.90829 18.5744C7.23329 18.8994 7.76663 18.8994 8.09163 18.5744L9.49163 17.1743C9.78329 16.8827 10.25 16.8493 10.575 17.0993L12 18.166C12.55 18.5743 13.3333 18.1827 13.3333 17.4993V3.33268C13.3333 2.41602 14.0833 1.66602 15 1.66602H5.83329H4.99996C2.49996 1.66602 1.66663 3.15768 1.66663 4.99935V5.83268Z" fill="#006ADC"/>
<path d="M10 10.2168H7.5C7.15833 10.2168 6.875 10.5001 6.875 10.8418C6.875 11.1835 7.15833 11.4668 7.5 11.4668H10C10.3417 11.4668 10.625 11.1835 10.625 10.8418C10.625 10.5001 10.3417 10.2168 10 10.2168Z" fill="#006ADC"/>
<path d="M7.5 8.13477H10C10.3417 8.13477 10.625 7.85143 10.625 7.50977C10.625 7.1681 10.3417 6.88477 10 6.88477H7.5C7.15833 6.88477 6.875 7.1681 6.875 7.50977C6.875 7.85143 7.15833 8.13477 7.5 8.13477Z" fill="#006ADC"/>
<path d="M4.97506 6.67578C4.50839 6.67578 4.14172 7.05078 4.14172 7.50911C4.14172 7.96745 4.51672 8.34245 4.97506 8.34245C5.43339 8.34245 5.80839 7.96745 5.80839 7.50911C5.80839 7.05078 5.43339 6.67578 4.97506 6.67578Z" fill="#006ADC"/>
<path d="M4.97506 10.0098C4.50839 10.0098 4.14172 10.3848 4.14172 10.8431C4.14172 11.3014 4.51672 11.6764 4.97506 11.6764C5.43339 11.6764 5.80839 11.3014 5.80839 10.8431C5.80839 10.3848 5.43339 10.0098 4.97506 10.0098Z" fill="#006ADC"/>
</svg>
