<svg width="20" height="20" viewBox="0 0 20 20" fill="none" xmlns="http://www.w3.org/2000/svg">
<path d="M10 9.99935C12.3012 9.99935 14.1667 8.13387 14.1667 5.83268C14.1667 3.5315 12.3012 1.66602 10 1.66602C7.69885 1.66602 5.83337 3.5315 5.83337 5.83268C5.83337 8.13387 7.69885 9.99935 10 9.99935Z" fill="#E5484D"/>
<path opacity="0.4" d="M9.99995 12.084C5.82495 12.084 2.42493 14.884 2.42493 18.334C2.42493 18.5673 2.60826 18.7507 2.84159 18.7507H17.1583C17.3916 18.7507 17.575 18.5673 17.575 18.334C17.575 14.884 14.1749 12.084 9.99995 12.084Z" fill="#E5484D"/>
<path d="M17.8583 12.2828C17.1083 11.5328 16.5166 11.7745 16.0083 12.2828L13.0583 15.2328C12.9416 15.3495 12.8333 15.5661 12.8083 15.7245L12.6499 16.8494C12.5916 17.2578 12.875 17.5411 13.2833 17.4828L14.4083 17.3244C14.5666 17.2994 14.7916 17.1911 14.9 17.0745L17.8499 14.1245C18.3666 13.6245 18.6083 13.0328 17.8583 12.2828Z" fill="#E5484D"/>
</svg>
